<mxfile host="app.diagrams.net" modified="2022-02-25T00:52:35.940Z" agent="5.0 (Macintosh; Intel Mac OS X 10_15_7) AppleWebKit/605.1.15 (KHTML, like Gecko) Version/14.1.2 Safari/605.1.15" etag="-I33PJmQFeS65BWqNbg8" version="16.5.4" type="github">
  <diagram id="GfSZufIO2AmBlwZ52Pym" name="Page-1">
    <mxGraphModel dx="1042" dy="630" grid="1" gridSize="10" guides="1" tooltips="1" connect="1" arrows="1" fold="1" page="1" pageScale="1" pageWidth="827" pageHeight="1169" math="0" shadow="0">
      <root>
        <mxCell id="0" />
        <mxCell id="1" parent="0" />
        <mxCell id="aPvHuGmZJIQzvLXJGcmd-1" value="const root = ReactDOM.createRoot(&#39;#div&#39;);&lt;br&gt;root.render(&amp;lt;App /&amp;gt;)" style="rounded=0;html=1;align=left;" parent="1" vertex="1">
          <mxGeometry x="10" y="290" width="270" height="30" as="geometry" />
        </mxCell>
        <mxCell id="aPvHuGmZJIQzvLXJGcmd-2" value="" style="endArrow=classic;html=1;rounded=0;entryX=0;entryY=0.5;entryDx=0;entryDy=0;exitX=1;exitY=0.5;exitDx=0;exitDy=0;" parent="1" source="aPvHuGmZJIQzvLXJGcmd-1" target="aPvHuGmZJIQzvLXJGcmd-3" edge="1">
          <mxGeometry width="50" height="50" relative="1" as="geometry">
            <mxPoint x="180" y="250" as="sourcePoint" />
            <mxPoint x="350" y="305" as="targetPoint" />
          </mxGeometry>
        </mxCell>
        <mxCell id="aPvHuGmZJIQzvLXJGcmd-5" style="edgeStyle=orthogonalEdgeStyle;rounded=0;orthogonalLoop=1;jettySize=auto;html=1;exitX=1;exitY=0.5;exitDx=0;exitDy=0;entryX=0;entryY=0.5;entryDx=0;entryDy=0;" parent="1" source="aPvHuGmZJIQzvLXJGcmd-3" target="aPvHuGmZJIQzvLXJGcmd-4" edge="1">
          <mxGeometry relative="1" as="geometry" />
        </mxCell>
        <mxCell id="aPvHuGmZJIQzvLXJGcmd-19" style="edgeStyle=orthogonalEdgeStyle;rounded=0;orthogonalLoop=1;jettySize=auto;html=1;exitX=0.5;exitY=1;exitDx=0;exitDy=0;entryX=0.5;entryY=0;entryDx=0;entryDy=0;" parent="1" source="aPvHuGmZJIQzvLXJGcmd-3" target="aPvHuGmZJIQzvLXJGcmd-18" edge="1">
          <mxGeometry relative="1" as="geometry" />
        </mxCell>
        <mxCell id="aPvHuGmZJIQzvLXJGcmd-3" value="const root = ReactDOM.createRoot(&#39;#div&#39;);&lt;br&gt;" style="rounded=0;html=1;align=left;" parent="1" vertex="1">
          <mxGeometry x="320" y="290" width="270" height="30" as="geometry" />
        </mxCell>
        <mxCell id="aPvHuGmZJIQzvLXJGcmd-8" style="edgeStyle=orthogonalEdgeStyle;rounded=0;orthogonalLoop=1;jettySize=auto;html=1;exitX=0.5;exitY=1;exitDx=0;exitDy=0;" parent="1" source="aPvHuGmZJIQzvLXJGcmd-4" target="aPvHuGmZJIQzvLXJGcmd-6" edge="1">
          <mxGeometry relative="1" as="geometry" />
        </mxCell>
        <mxCell id="aPvHuGmZJIQzvLXJGcmd-11" style="edgeStyle=orthogonalEdgeStyle;rounded=0;orthogonalLoop=1;jettySize=auto;html=1;entryX=0;entryY=0.5;entryDx=0;entryDy=0;" parent="1" source="aPvHuGmZJIQzvLXJGcmd-4" target="aPvHuGmZJIQzvLXJGcmd-10" edge="1">
          <mxGeometry relative="1" as="geometry" />
        </mxCell>
        <mxCell id="aPvHuGmZJIQzvLXJGcmd-4" value="const root = ReactFiberReconciler.createContainer(&lt;br&gt;&amp;nbsp; &#39;#div&#39;,&lt;br&gt;&amp;nbsp; ConcurrentRoot,&lt;br&gt;&lt;span style=&quot;white-space: pre&quot;&gt;&amp;nbsp; false,&lt;br&gt;&lt;/span&gt;&amp;nbsp; null,&lt;br&gt;&amp;nbsp; false,&lt;br&gt;&amp;nbsp; false,&lt;br&gt;&amp;nbsp; &#39;&#39;,&lt;br&gt;&amp;nbsp; null&lt;br&gt;);" style="rounded=0;html=1;align=left;" parent="1" vertex="1">
          <mxGeometry x="630" y="60" width="280" height="160" as="geometry" />
        </mxCell>
        <mxCell id="aPvHuGmZJIQzvLXJGcmd-9" style="edgeStyle=orthogonalEdgeStyle;rounded=0;orthogonalLoop=1;jettySize=auto;html=1;exitX=0.5;exitY=1;exitDx=0;exitDy=0;entryX=0.5;entryY=0;entryDx=0;entryDy=0;" parent="1" source="aPvHuGmZJIQzvLXJGcmd-6" target="aPvHuGmZJIQzvLXJGcmd-7" edge="1">
          <mxGeometry relative="1" as="geometry" />
        </mxCell>
        <mxCell id="aPvHuGmZJIQzvLXJGcmd-6" value="listenToAllSupportedEvents(#div)" style="rounded=0;html=1;align=left;" parent="1" vertex="1">
          <mxGeometry x="630" y="285" width="280" height="25" as="geometry" />
        </mxCell>
        <mxCell id="aPvHuGmZJIQzvLXJGcmd-7" value="return new ReactDOMRoot(FiberRoot)" style="rounded=0;html=1;align=left;" parent="1" vertex="1">
          <mxGeometry x="630" y="350" width="280" height="30" as="geometry" />
        </mxCell>
        <mxCell id="aPvHuGmZJIQzvLXJGcmd-16" style="edgeStyle=orthogonalEdgeStyle;rounded=0;orthogonalLoop=1;jettySize=auto;html=1;exitX=1;exitY=0.5;exitDx=0;exitDy=0;entryX=0;entryY=0.5;entryDx=0;entryDy=0;" parent="1" source="aPvHuGmZJIQzvLXJGcmd-10" target="aPvHuGmZJIQzvLXJGcmd-12" edge="1">
          <mxGeometry relative="1" as="geometry" />
        </mxCell>
        <mxCell id="aPvHuGmZJIQzvLXJGcmd-10" value="const root = ReactFiberRoot.createFiberRoot(&lt;br&gt;&amp;nbsp; &#39;#div&#39;,&lt;br&gt;&amp;nbsp; ConcurrentRoot,&lt;br&gt;&lt;span style=&quot;white-space: pre&quot;&gt;&amp;nbsp; false,&lt;br&gt;&lt;/span&gt;&amp;nbsp; null,&lt;br&gt;&amp;nbsp; false,&lt;br&gt;&amp;nbsp; false,&lt;br&gt;&amp;nbsp; &#39;&#39;,&lt;br&gt;&amp;nbsp; null&lt;br&gt;);&lt;br&gt;" style="rounded=0;html=1;align=left;" parent="1" vertex="1">
          <mxGeometry x="940" y="60" width="280" height="160" as="geometry" />
        </mxCell>
        <mxCell id="aPvHuGmZJIQzvLXJGcmd-17" style="edgeStyle=orthogonalEdgeStyle;rounded=0;orthogonalLoop=1;jettySize=auto;html=1;exitX=0.5;exitY=1;exitDx=0;exitDy=0;entryX=0.5;entryY=0;entryDx=0;entryDy=0;" parent="1" source="aPvHuGmZJIQzvLXJGcmd-12" target="aPvHuGmZJIQzvLXJGcmd-13" edge="1">
          <mxGeometry relative="1" as="geometry" />
        </mxCell>
        <mxCell id="aPvHuGmZJIQzvLXJGcmd-12" value="const root = new FiberRootNode(&lt;br&gt;&amp;nbsp; &#39;#div&#39;,&lt;br&gt;&amp;nbsp; ConcurrentRoot,&lt;br&gt;&amp;nbsp; false,&lt;br&gt;&amp;nbsp; &#39;&#39;,&lt;br&gt;&amp;nbsp; null&lt;br&gt;);" style="rounded=0;html=1;align=left;" parent="1" vertex="1">
          <mxGeometry x="1270" y="60" width="280" height="100" as="geometry" />
        </mxCell>
        <mxCell id="aPvHuGmZJIQzvLXJGcmd-15" style="edgeStyle=orthogonalEdgeStyle;rounded=0;orthogonalLoop=1;jettySize=auto;html=1;entryX=0;entryY=0.5;entryDx=0;entryDy=0;" parent="1" source="aPvHuGmZJIQzvLXJGcmd-13" target="aPvHuGmZJIQzvLXJGcmd-14" edge="1">
          <mxGeometry relative="1" as="geometry" />
        </mxCell>
        <mxCell id="aPvHuGmZJIQzvLXJGcmd-13" value="const uninitializedFiber = createHostRootFiber(&lt;br&gt;&amp;nbsp; ConcurrentRoot,&lt;br&gt;&amp;nbsp; false,&lt;br&gt;&amp;nbsp; false&lt;br&gt;);&lt;br&gt;&lt;br&gt;root.current = uninitializedFiber;&lt;br&gt;uninitializedFiber.stateNode = root;&lt;br&gt;&lt;br&gt;initializeUpdateQueue(uninitializedFiber)&lt;br&gt;" style="rounded=0;html=1;align=left;" parent="1" vertex="1">
          <mxGeometry x="1270" y="185" width="280" height="155" as="geometry" />
        </mxCell>
        <mxCell id="aPvHuGmZJIQzvLXJGcmd-14" value="createFiber(HostRoot, null, null, ConcurrentMode | ProfileMode)" style="rounded=0;html=1;align=left;" parent="1" vertex="1">
          <mxGeometry x="1590" y="250" width="340" height="25" as="geometry" />
        </mxCell>
        <mxCell id="aPvHuGmZJIQzvLXJGcmd-21" style="edgeStyle=orthogonalEdgeStyle;rounded=0;orthogonalLoop=1;jettySize=auto;html=1;exitX=1;exitY=0.5;exitDx=0;exitDy=0;entryX=0;entryY=0.5;entryDx=0;entryDy=0;" parent="1" source="aPvHuGmZJIQzvLXJGcmd-18" target="aPvHuGmZJIQzvLXJGcmd-20" edge="1">
          <mxGeometry relative="1" as="geometry" />
        </mxCell>
        <mxCell id="aPvHuGmZJIQzvLXJGcmd-18" value="root.render(&amp;lt;App /&amp;gt;)" style="rounded=0;html=1;align=left;" parent="1" vertex="1">
          <mxGeometry x="320" y="410" width="270" height="30" as="geometry" />
        </mxCell>
        <mxCell id="aPvHuGmZJIQzvLXJGcmd-23" style="edgeStyle=orthogonalEdgeStyle;rounded=0;orthogonalLoop=1;jettySize=auto;html=1;exitX=1;exitY=0.5;exitDx=0;exitDy=0;entryX=0;entryY=0.5;entryDx=0;entryDy=0;" parent="1" source="aPvHuGmZJIQzvLXJGcmd-20" target="aPvHuGmZJIQzvLXJGcmd-22" edge="1">
          <mxGeometry relative="1" as="geometry" />
        </mxCell>
        <mxCell id="aPvHuGmZJIQzvLXJGcmd-20" value="ReactFiberReconciler.updateContainer(&lt;br&gt;&amp;nbsp; &amp;lt;App /&amp;gt;,&lt;br&gt;&amp;nbsp; FiberRootNode,&lt;br&gt;&amp;nbsp; null,&lt;br&gt;&amp;nbsp; null&lt;br&gt;)" style="rounded=0;html=1;align=left;" parent="1" vertex="1">
          <mxGeometry x="630" y="410" width="270" height="90" as="geometry" />
        </mxCell>
        <mxCell id="aPvHuGmZJIQzvLXJGcmd-25" style="edgeStyle=orthogonalEdgeStyle;rounded=0;orthogonalLoop=1;jettySize=auto;html=1;exitX=0.5;exitY=1;exitDx=0;exitDy=0;entryX=0.5;entryY=0;entryDx=0;entryDy=0;" parent="1" source="aPvHuGmZJIQzvLXJGcmd-22" target="aPvHuGmZJIQzvLXJGcmd-24" edge="1">
          <mxGeometry relative="1" as="geometry" />
        </mxCell>
        <mxCell id="aPvHuGmZJIQzvLXJGcmd-22" value="const current = container.current;&lt;br&gt;const eventTime = requestEventTime();&lt;br&gt;const lane = requestUpdateLane(current);&lt;br&gt;...&lt;br&gt;enqueueUpdate(current, update, lane);&lt;br&gt;" style="rounded=0;html=1;align=left;" parent="1" vertex="1">
          <mxGeometry x="940" y="410" width="270" height="90" as="geometry" />
        </mxCell>
        <mxCell id="aPvHuGmZJIQzvLXJGcmd-30" style="edgeStyle=orthogonalEdgeStyle;rounded=0;orthogonalLoop=1;jettySize=auto;html=1;exitX=1;exitY=0.5;exitDx=0;exitDy=0;entryX=0;entryY=0.5;entryDx=0;entryDy=0;" parent="1" source="aPvHuGmZJIQzvLXJGcmd-24" target="aPvHuGmZJIQzvLXJGcmd-26" edge="1">
          <mxGeometry relative="1" as="geometry" />
        </mxCell>
        <mxCell id="aPvHuGmZJIQzvLXJGcmd-24" value="const root = ReactFiberWorkLoop.scheduleUpdateOnFiber(&lt;br&gt;&amp;nbsp; current,&lt;br&gt;&amp;nbsp; lane, &lt;br&gt;&amp;nbsp; eventTime&lt;br&gt;);" style="rounded=0;html=1;align=left;" parent="1" vertex="1">
          <mxGeometry x="940" y="550" width="320" height="80" as="geometry" />
        </mxCell>
        <mxCell id="aPvHuGmZJIQzvLXJGcmd-31" style="edgeStyle=orthogonalEdgeStyle;rounded=0;orthogonalLoop=1;jettySize=auto;html=1;exitX=0.5;exitY=1;exitDx=0;exitDy=0;entryX=0.5;entryY=0;entryDx=0;entryDy=0;" parent="1" source="aPvHuGmZJIQzvLXJGcmd-26" target="aPvHuGmZJIQzvLXJGcmd-27" edge="1">
          <mxGeometry relative="1" as="geometry" />
        </mxCell>
        <mxCell id="aPvHuGmZJIQzvLXJGcmd-26" value="markUpdateLaneFromFiberToRoot(fiber, lane)" style="rounded=0;html=1;align=left;" parent="1" vertex="1">
          <mxGeometry x="1330" y="550" width="270" height="30" as="geometry" />
        </mxCell>
        <mxCell id="aPvHuGmZJIQzvLXJGcmd-33" style="edgeStyle=orthogonalEdgeStyle;rounded=0;orthogonalLoop=1;jettySize=auto;html=1;exitX=0.5;exitY=1;exitDx=0;exitDy=0;entryX=0.5;entryY=0;entryDx=0;entryDy=0;" parent="1" source="aPvHuGmZJIQzvLXJGcmd-27" target="aPvHuGmZJIQzvLXJGcmd-32" edge="1">
          <mxGeometry relative="1" as="geometry" />
        </mxCell>
        <mxCell id="aPvHuGmZJIQzvLXJGcmd-27" value="markRootUpdated(root, lane, eventTime)" style="rounded=0;html=1;align=left;" parent="1" vertex="1">
          <mxGeometry x="1330" y="610" width="270" height="30" as="geometry" />
        </mxCell>
        <mxCell id="aPvHuGmZJIQzvLXJGcmd-35" style="edgeStyle=orthogonalEdgeStyle;rounded=0;orthogonalLoop=1;jettySize=auto;html=1;exitX=1;exitY=0.5;exitDx=0;exitDy=0;entryX=0;entryY=0.5;entryDx=0;entryDy=0;" parent="1" source="aPvHuGmZJIQzvLXJGcmd-32" target="aPvHuGmZJIQzvLXJGcmd-34" edge="1">
          <mxGeometry relative="1" as="geometry" />
        </mxCell>
        <mxCell id="aPvHuGmZJIQzvLXJGcmd-32" value="ensureRootIsScheduled(&lt;br&gt;&amp;nbsp; FiberRootNode, &lt;br&gt;&amp;nbsp; eventTime&lt;br&gt;)" style="rounded=0;html=1;align=left;" parent="1" vertex="1">
          <mxGeometry x="1330" y="670" width="270" height="60" as="geometry" />
        </mxCell>
        <mxCell id="aPvHuGmZJIQzvLXJGcmd-37" style="edgeStyle=orthogonalEdgeStyle;rounded=0;orthogonalLoop=1;jettySize=auto;html=1;exitX=0.5;exitY=1;exitDx=0;exitDy=0;entryX=0.5;entryY=0;entryDx=0;entryDy=0;" parent="1" source="aPvHuGmZJIQzvLXJGcmd-34" target="aPvHuGmZJIQzvLXJGcmd-36" edge="1">
          <mxGeometry relative="1" as="geometry" />
        </mxCell>
        <mxCell id="aPvHuGmZJIQzvLXJGcmd-34" value="markStarvedLanesAsExpired(root, currentTime)" style="rounded=0;html=1;align=left;" parent="1" vertex="1">
          <mxGeometry x="1654" y="685" width="270" height="30" as="geometry" />
        </mxCell>
        <mxCell id="aPvHuGmZJIQzvLXJGcmd-39" style="edgeStyle=orthogonalEdgeStyle;rounded=0;orthogonalLoop=1;jettySize=auto;html=1;exitX=0.5;exitY=1;exitDx=0;exitDy=0;entryX=0.5;entryY=0;entryDx=0;entryDy=0;" parent="1" source="aPvHuGmZJIQzvLXJGcmd-36" target="aPvHuGmZJIQzvLXJGcmd-38" edge="1">
          <mxGeometry relative="1" as="geometry" />
        </mxCell>
        <mxCell id="aPvHuGmZJIQzvLXJGcmd-36" value="getNextLanes(root, wipLanes)" style="rounded=0;html=1;align=left;" parent="1" vertex="1">
          <mxGeometry x="1654" y="740" width="270" height="30" as="geometry" />
        </mxCell>
        <mxCell id="aPvHuGmZJIQzvLXJGcmd-41" style="edgeStyle=orthogonalEdgeStyle;rounded=0;orthogonalLoop=1;jettySize=auto;html=1;exitX=1;exitY=0.5;exitDx=0;exitDy=0;" parent="1" source="aPvHuGmZJIQzvLXJGcmd-38" target="aPvHuGmZJIQzvLXJGcmd-40" edge="1">
          <mxGeometry relative="1" as="geometry" />
        </mxCell>
        <mxCell id="aPvHuGmZJIQzvLXJGcmd-38" value="scheduleCallback(&lt;br&gt;&amp;nbsp; NormalSchedulerPriority, &lt;br&gt;&amp;nbsp; performConcurrentWorkOnRoot.bind(null, root)&lt;br&gt;)" style="rounded=0;html=1;align=left;" parent="1" vertex="1">
          <mxGeometry x="1654" y="800" width="270" height="60" as="geometry" />
        </mxCell>
        <mxCell id="aPvHuGmZJIQzvLXJGcmd-43" style="edgeStyle=orthogonalEdgeStyle;rounded=0;orthogonalLoop=1;jettySize=auto;html=1;exitX=1;exitY=0.5;exitDx=0;exitDy=0;entryX=0;entryY=0.5;entryDx=0;entryDy=0;" parent="1" source="aPvHuGmZJIQzvLXJGcmd-40" target="aPvHuGmZJIQzvLXJGcmd-42" edge="1">
          <mxGeometry relative="1" as="geometry" />
        </mxCell>
        <mxCell id="aPvHuGmZJIQzvLXJGcmd-40" value="Scheduler.unstable_scheduleCallback(&lt;br&gt;&amp;nbsp; NormalSchedulerPriority, &lt;br&gt;&amp;nbsp; performConcurrentWorkOnRoot.bind(null, root)&lt;br&gt;)" style="rounded=0;html=1;align=left;" parent="1" vertex="1">
          <mxGeometry x="1980" y="800" width="270" height="60" as="geometry" />
        </mxCell>
        <mxCell id="aPvHuGmZJIQzvLXJGcmd-46" style="edgeStyle=orthogonalEdgeStyle;rounded=0;orthogonalLoop=1;jettySize=auto;html=1;exitX=0.5;exitY=1;exitDx=0;exitDy=0;entryX=0.5;entryY=0;entryDx=0;entryDy=0;" parent="1" source="aPvHuGmZJIQzvLXJGcmd-42" target="aPvHuGmZJIQzvLXJGcmd-45" edge="1">
          <mxGeometry relative="1" as="geometry" />
        </mxCell>
        <mxCell id="aPvHuGmZJIQzvLXJGcmd-42" value="var newTask = {&lt;br&gt;&lt;span&gt;&amp;nbsp; id: 1,&lt;br&gt;&lt;/span&gt;&amp;nbsp; callback: performConcurrentWorkOnRoot.bind(null, root)&lt;br&gt;&amp;nbsp; priorityLevel: NormalSchedulerPriority,&lt;br&gt;&amp;nbsp; startTime,&lt;br&gt;&amp;nbsp; expirationTime,&lt;br&gt;&amp;nbsp; sortIndex: -1,&lt;br&gt;}&lt;br&gt;...&lt;br&gt;push(taskQueue, newTask)&lt;br&gt;" style="rounded=0;html=1;align=left;" parent="1" vertex="1">
          <mxGeometry x="2290" y="770" width="320" height="150" as="geometry" />
        </mxCell>
        <mxCell id="aPvHuGmZJIQzvLXJGcmd-49" style="edgeStyle=orthogonalEdgeStyle;rounded=0;orthogonalLoop=1;jettySize=auto;html=1;exitX=1;exitY=0.5;exitDx=0;exitDy=0;entryX=0;entryY=0.5;entryDx=0;entryDy=0;" parent="1" source="aPvHuGmZJIQzvLXJGcmd-45" target="aPvHuGmZJIQzvLXJGcmd-47" edge="1">
          <mxGeometry relative="1" as="geometry" />
        </mxCell>
        <mxCell id="aPvHuGmZJIQzvLXJGcmd-45" value="requestHostCallback(flushWork)" style="rounded=0;html=1;align=left;" parent="1" vertex="1">
          <mxGeometry x="2290" y="970" width="320" height="40" as="geometry" />
        </mxCell>
        <mxCell id="aPvHuGmZJIQzvLXJGcmd-53" style="edgeStyle=orthogonalEdgeStyle;rounded=0;orthogonalLoop=1;jettySize=auto;html=1;exitX=1;exitY=0.5;exitDx=0;exitDy=0;entryX=0;entryY=0.5;entryDx=0;entryDy=0;" parent="1" source="aPvHuGmZJIQzvLXJGcmd-47" target="aPvHuGmZJIQzvLXJGcmd-51" edge="1">
          <mxGeometry relative="1" as="geometry" />
        </mxCell>
        <mxCell id="aPvHuGmZJIQzvLXJGcmd-47" value="schedulePerformWorkUntilDeadline()" style="rounded=0;html=1;align=left;" parent="1" vertex="1">
          <mxGeometry x="2640" y="970" width="210" height="40" as="geometry" />
        </mxCell>
        <mxCell id="aPvHuGmZJIQzvLXJGcmd-55" value="" style="edgeStyle=orthogonalEdgeStyle;rounded=0;orthogonalLoop=1;jettySize=auto;html=1;" parent="1" source="aPvHuGmZJIQzvLXJGcmd-50" target="aPvHuGmZJIQzvLXJGcmd-54" edge="1">
          <mxGeometry relative="1" as="geometry" />
        </mxCell>
        <mxCell id="aPvHuGmZJIQzvLXJGcmd-50" value="performWorkUntilDeadline()" style="rounded=0;html=1;align=left;" parent="1" vertex="1">
          <mxGeometry x="700" y="1060" width="160" height="40" as="geometry" />
        </mxCell>
        <mxCell id="aPvHuGmZJIQzvLXJGcmd-52" style="edgeStyle=orthogonalEdgeStyle;rounded=0;orthogonalLoop=1;jettySize=auto;html=1;exitX=1;exitY=0.5;exitDx=0;exitDy=0;entryX=0;entryY=0.5;entryDx=0;entryDy=0;" parent="1" source="aPvHuGmZJIQzvLXJGcmd-51" target="aPvHuGmZJIQzvLXJGcmd-50" edge="1">
          <mxGeometry relative="1" as="geometry" />
        </mxCell>
        <mxCell id="aPvHuGmZJIQzvLXJGcmd-51" value="JS Macro Task" style="rounded=0;html=1;align=left;" parent="1" vertex="1">
          <mxGeometry x="430" y="1060" width="90" height="40" as="geometry" />
        </mxCell>
        <mxCell id="aPvHuGmZJIQzvLXJGcmd-57" value="" style="edgeStyle=orthogonalEdgeStyle;rounded=0;orthogonalLoop=1;jettySize=auto;html=1;" parent="1" source="aPvHuGmZJIQzvLXJGcmd-54" target="aPvHuGmZJIQzvLXJGcmd-56" edge="1">
          <mxGeometry relative="1" as="geometry" />
        </mxCell>
        <mxCell id="aPvHuGmZJIQzvLXJGcmd-54" value="flushWork()" style="rounded=0;html=1;align=left;" parent="1" vertex="1">
          <mxGeometry x="920" y="1060" width="70" height="40" as="geometry" />
        </mxCell>
        <mxCell id="aPvHuGmZJIQzvLXJGcmd-59" value="" style="edgeStyle=orthogonalEdgeStyle;rounded=0;orthogonalLoop=1;jettySize=auto;html=1;entryX=0;entryY=0.5;entryDx=0;entryDy=0;" parent="1" source="aPvHuGmZJIQzvLXJGcmd-56" target="aPvHuGmZJIQzvLXJGcmd-66" edge="1">
          <mxGeometry relative="1" as="geometry">
            <mxPoint x="1560" y="1130" as="targetPoint" />
          </mxGeometry>
        </mxCell>
        <mxCell id="aPvHuGmZJIQzvLXJGcmd-56" value="workLoop(true, currentTime)" style="rounded=0;html=1;align=left;" parent="1" vertex="1">
          <mxGeometry x="1035" y="1060" width="155" height="40" as="geometry" />
        </mxCell>
        <mxCell id="aPvHuGmZJIQzvLXJGcmd-62" value="" style="edgeStyle=orthogonalEdgeStyle;rounded=0;orthogonalLoop=1;jettySize=auto;html=1;" parent="1" source="aPvHuGmZJIQzvLXJGcmd-58" target="aPvHuGmZJIQzvLXJGcmd-60" edge="1">
          <mxGeometry relative="1" as="geometry" />
        </mxCell>
        <mxCell id="aPvHuGmZJIQzvLXJGcmd-69" style="edgeStyle=orthogonalEdgeStyle;rounded=0;orthogonalLoop=1;jettySize=auto;html=1;" parent="1" source="aPvHuGmZJIQzvLXJGcmd-58" target="aPvHuGmZJIQzvLXJGcmd-68" edge="1">
          <mxGeometry relative="1" as="geometry" />
        </mxCell>
        <mxCell id="aPvHuGmZJIQzvLXJGcmd-58" value="flushPassiveEffects()" style="rounded=0;html=1;align=left;" parent="1" vertex="1">
          <mxGeometry x="1628" y="1060" width="120" height="40" as="geometry" />
        </mxCell>
        <mxCell id="aPvHuGmZJIQzvLXJGcmd-63" value="" style="edgeStyle=orthogonalEdgeStyle;rounded=0;orthogonalLoop=1;jettySize=auto;html=1;" parent="1" source="aPvHuGmZJIQzvLXJGcmd-60" target="aPvHuGmZJIQzvLXJGcmd-61" edge="1">
          <mxGeometry relative="1" as="geometry" />
        </mxCell>
        <mxCell id="aPvHuGmZJIQzvLXJGcmd-60" value="commitPassiveUnmountEffects(root.current)" style="rounded=0;html=1;align=left;" parent="1" vertex="1">
          <mxGeometry x="1798" y="1060" width="270" height="40" as="geometry" />
        </mxCell>
        <mxCell id="aPvHuGmZJIQzvLXJGcmd-65" value="" style="edgeStyle=orthogonalEdgeStyle;rounded=0;orthogonalLoop=1;jettySize=auto;html=1;" parent="1" source="aPvHuGmZJIQzvLXJGcmd-61" target="aPvHuGmZJIQzvLXJGcmd-64" edge="1">
          <mxGeometry relative="1" as="geometry" />
        </mxCell>
        <mxCell id="aPvHuGmZJIQzvLXJGcmd-61" value="commitPassiveUnmountEffects(root, root.current)" style="rounded=0;html=1;align=left;" parent="1" vertex="1">
          <mxGeometry x="1798" y="1120" width="270" height="40" as="geometry" />
        </mxCell>
        <mxCell id="aPvHuGmZJIQzvLXJGcmd-64" value="flushSyncCallbacks()" style="rounded=0;html=1;align=left;" parent="1" vertex="1">
          <mxGeometry x="1798" y="1190" width="270" height="40" as="geometry" />
        </mxCell>
        <mxCell id="aPvHuGmZJIQzvLXJGcmd-67" value="" style="edgeStyle=orthogonalEdgeStyle;rounded=0;orthogonalLoop=1;jettySize=auto;html=1;" parent="1" source="aPvHuGmZJIQzvLXJGcmd-66" target="aPvHuGmZJIQzvLXJGcmd-58" edge="1">
          <mxGeometry relative="1" as="geometry" />
        </mxCell>
        <mxCell id="aPvHuGmZJIQzvLXJGcmd-66" value="performConcurrentWorkOnRoot(root, true)" style="rounded=0;html=1;align=left;" parent="1" vertex="1">
          <mxGeometry x="1280" y="1060" width="229" height="40" as="geometry" />
        </mxCell>
        <mxCell id="aPvHuGmZJIQzvLXJGcmd-72" style="edgeStyle=orthogonalEdgeStyle;rounded=0;orthogonalLoop=1;jettySize=auto;html=1;entryX=0;entryY=0.5;entryDx=0;entryDy=0;" parent="1" source="aPvHuGmZJIQzvLXJGcmd-68" target="aPvHuGmZJIQzvLXJGcmd-70" edge="1">
          <mxGeometry relative="1" as="geometry" />
        </mxCell>
        <mxCell id="aPvHuGmZJIQzvLXJGcmd-73" value="true" style="edgeLabel;html=1;align=center;verticalAlign=middle;resizable=0;points=[];" parent="aPvHuGmZJIQzvLXJGcmd-72" vertex="1" connectable="0">
          <mxGeometry x="0.0517" y="-2" relative="1" as="geometry">
            <mxPoint as="offset" />
          </mxGeometry>
        </mxCell>
        <mxCell id="aPvHuGmZJIQzvLXJGcmd-74" value="false" style="edgeStyle=orthogonalEdgeStyle;rounded=0;orthogonalLoop=1;jettySize=auto;html=1;entryX=0;entryY=0.5;entryDx=0;entryDy=0;" parent="1" source="aPvHuGmZJIQzvLXJGcmd-68" target="aPvHuGmZJIQzvLXJGcmd-71" edge="1">
          <mxGeometry relative="1" as="geometry" />
        </mxCell>
        <mxCell id="aPvHuGmZJIQzvLXJGcmd-77" value="" style="edgeStyle=orthogonalEdgeStyle;rounded=0;orthogonalLoop=1;jettySize=auto;html=1;" parent="1" source="aPvHuGmZJIQzvLXJGcmd-68" target="aPvHuGmZJIQzvLXJGcmd-75" edge="1">
          <mxGeometry relative="1" as="geometry" />
        </mxCell>
        <mxCell id="aPvHuGmZJIQzvLXJGcmd-68" value="let exitStatus = shouldTimeSlice ? renderRootConcurrent(root, lanes) : renderRootSync(root, lanes)" style="rounded=0;html=1;align=left;" parent="1" vertex="1">
          <mxGeometry x="1422" y="1350" width="532" height="40" as="geometry" />
        </mxCell>
        <mxCell id="aPvHuGmZJIQzvLXJGcmd-70" value="renderRootConcurrent(root, lanes)" style="rounded=0;html=1;align=left;" parent="1" vertex="1">
          <mxGeometry x="2000" y="1420" width="190" height="40" as="geometry" />
        </mxCell>
        <mxCell id="aPvHuGmZJIQzvLXJGcmd-87" value="" style="edgeStyle=orthogonalEdgeStyle;rounded=0;orthogonalLoop=1;jettySize=auto;html=1;entryX=0;entryY=0.5;entryDx=0;entryDy=0;" parent="1" source="aPvHuGmZJIQzvLXJGcmd-71" target="aPvHuGmZJIQzvLXJGcmd-86" edge="1">
          <mxGeometry relative="1" as="geometry" />
        </mxCell>
        <mxCell id="aPvHuGmZJIQzvLXJGcmd-71" value="renderRootSync(root, lanes)" style="rounded=0;html=1;align=left;" parent="1" vertex="1">
          <mxGeometry x="2000" y="1290" width="190" height="40" as="geometry" />
        </mxCell>
        <mxCell id="aPvHuGmZJIQzvLXJGcmd-78" value="" style="edgeStyle=orthogonalEdgeStyle;rounded=0;orthogonalLoop=1;jettySize=auto;html=1;" parent="1" source="aPvHuGmZJIQzvLXJGcmd-75" target="aPvHuGmZJIQzvLXJGcmd-76" edge="1">
          <mxGeometry relative="1" as="geometry" />
        </mxCell>
        <mxCell id="wl0tcXKJO6LF3421pvtA-4" value="" style="edgeStyle=orthogonalEdgeStyle;rounded=0;orthogonalLoop=1;jettySize=auto;html=1;" edge="1" parent="1" source="aPvHuGmZJIQzvLXJGcmd-75" target="wl0tcXKJO6LF3421pvtA-3">
          <mxGeometry relative="1" as="geometry" />
        </mxCell>
        <mxCell id="aPvHuGmZJIQzvLXJGcmd-75" value="finishConcurrentRender(root, exitStatus, lanes)" style="rounded=0;html=1;align=left;" parent="1" vertex="1">
          <mxGeometry x="1553" y="1500" width="270" height="40" as="geometry" />
        </mxCell>
        <mxCell id="aPvHuGmZJIQzvLXJGcmd-83" value="" style="edgeStyle=orthogonalEdgeStyle;rounded=0;orthogonalLoop=1;jettySize=auto;html=1;" parent="1" source="aPvHuGmZJIQzvLXJGcmd-76" target="aPvHuGmZJIQzvLXJGcmd-79" edge="1">
          <mxGeometry relative="1" as="geometry" />
        </mxCell>
        <mxCell id="aPvHuGmZJIQzvLXJGcmd-76" value="ensureRootIsScheduled(root, now())" style="rounded=0;html=1;align=left;" parent="1" vertex="1">
          <mxGeometry x="1553" y="1600" width="270" height="40" as="geometry" />
        </mxCell>
        <mxCell id="aPvHuGmZJIQzvLXJGcmd-81" value="" style="edgeStyle=orthogonalEdgeStyle;rounded=0;orthogonalLoop=1;jettySize=auto;html=1;" parent="1" source="aPvHuGmZJIQzvLXJGcmd-79" target="aPvHuGmZJIQzvLXJGcmd-80" edge="1">
          <mxGeometry relative="1" as="geometry" />
        </mxCell>
        <mxCell id="aPvHuGmZJIQzvLXJGcmd-82" value="true" style="edgeLabel;html=1;align=center;verticalAlign=middle;resizable=0;points=[];" parent="aPvHuGmZJIQzvLXJGcmd-81" vertex="1" connectable="0">
          <mxGeometry x="0.0093" y="-5" relative="1" as="geometry">
            <mxPoint y="-5" as="offset" />
          </mxGeometry>
        </mxCell>
        <mxCell id="aPvHuGmZJIQzvLXJGcmd-85" value="" style="edgeStyle=orthogonalEdgeStyle;rounded=0;orthogonalLoop=1;jettySize=auto;html=1;" parent="1" source="aPvHuGmZJIQzvLXJGcmd-79" target="aPvHuGmZJIQzvLXJGcmd-84" edge="1">
          <mxGeometry relative="1" as="geometry" />
        </mxCell>
        <mxCell id="aPvHuGmZJIQzvLXJGcmd-79" value="root.callbackNode === originalCallbackNode" style="rounded=0;html=1;align=left;" parent="1" vertex="1">
          <mxGeometry x="1553" y="1690" width="270" height="40" as="geometry" />
        </mxCell>
        <mxCell id="aPvHuGmZJIQzvLXJGcmd-80" value="return performConcurrentWorkOnRoot.bind(null, root)" style="rounded=0;html=1;align=left;" parent="1" vertex="1">
          <mxGeometry x="1930" y="1690" width="290" height="40" as="geometry" />
        </mxCell>
        <mxCell id="aPvHuGmZJIQzvLXJGcmd-84" value="return null" style="rounded=0;html=1;align=left;" parent="1" vertex="1">
          <mxGeometry x="1553" y="1780" width="270" height="40" as="geometry" />
        </mxCell>
        <mxCell id="aPvHuGmZJIQzvLXJGcmd-89" value="" style="edgeStyle=orthogonalEdgeStyle;rounded=0;orthogonalLoop=1;jettySize=auto;html=1;" parent="1" source="aPvHuGmZJIQzvLXJGcmd-86" target="aPvHuGmZJIQzvLXJGcmd-88" edge="1">
          <mxGeometry relative="1" as="geometry" />
        </mxCell>
        <mxCell id="aPvHuGmZJIQzvLXJGcmd-86" value="prepareFreshStack(root, lanes)" style="rounded=0;html=1;align=left;" parent="1" vertex="1">
          <mxGeometry x="2250" y="1140" width="190" height="40" as="geometry" />
        </mxCell>
        <mxCell id="aPvHuGmZJIQzvLXJGcmd-91" value="" style="edgeStyle=orthogonalEdgeStyle;rounded=0;orthogonalLoop=1;jettySize=auto;html=1;" parent="1" source="aPvHuGmZJIQzvLXJGcmd-88" target="aPvHuGmZJIQzvLXJGcmd-90" edge="1">
          <mxGeometry relative="1" as="geometry" />
        </mxCell>
        <mxCell id="aPvHuGmZJIQzvLXJGcmd-88" value="do {&lt;br&gt;&amp;nbsp; try {&lt;br&gt;&amp;nbsp; &amp;nbsp; workLoopSync();&lt;br&gt;&amp;nbsp; &amp;nbsp; break;&lt;br&gt;&amp;nbsp; } catch (throwValue) {&lt;br&gt;&amp;nbsp; &amp;nbsp; handleError(root, throwValue);&lt;br&gt;&amp;nbsp; }&lt;br&gt;}" style="rounded=0;html=1;align=left;" parent="1" vertex="1">
          <mxGeometry x="2250" y="1240" width="190" height="110" as="geometry" />
        </mxCell>
        <mxCell id="aPvHuGmZJIQzvLXJGcmd-94" style="edgeStyle=orthogonalEdgeStyle;rounded=0;orthogonalLoop=1;jettySize=auto;html=1;exitX=1;exitY=0.5;exitDx=0;exitDy=0;entryX=0;entryY=0.5;entryDx=0;entryDy=0;" parent="1" source="aPvHuGmZJIQzvLXJGcmd-90" target="aPvHuGmZJIQzvLXJGcmd-92" edge="1">
          <mxGeometry relative="1" as="geometry" />
        </mxCell>
        <mxCell id="aPvHuGmZJIQzvLXJGcmd-95" style="edgeStyle=orthogonalEdgeStyle;rounded=0;orthogonalLoop=1;jettySize=auto;html=1;exitX=1;exitY=0.5;exitDx=0;exitDy=0;entryX=0;entryY=0.5;entryDx=0;entryDy=0;" parent="1" source="aPvHuGmZJIQzvLXJGcmd-90" target="aPvHuGmZJIQzvLXJGcmd-93" edge="1">
          <mxGeometry relative="1" as="geometry" />
        </mxCell>
        <mxCell id="aPvHuGmZJIQzvLXJGcmd-90" value="Throw Value" style="rounded=0;html=1;align=left;" parent="1" vertex="1">
          <mxGeometry x="2500" y="1275" width="80" height="40" as="geometry" />
        </mxCell>
        <mxCell id="aPvHuGmZJIQzvLXJGcmd-97" value="" style="edgeStyle=orthogonalEdgeStyle;rounded=0;orthogonalLoop=1;jettySize=auto;html=1;" parent="1" source="aPvHuGmZJIQzvLXJGcmd-92" target="aPvHuGmZJIQzvLXJGcmd-96" edge="1">
          <mxGeometry relative="1" as="geometry" />
        </mxCell>
        <mxCell id="aPvHuGmZJIQzvLXJGcmd-92" value="workLoopSync()" style="rounded=0;html=1;align=left;" parent="1" vertex="1">
          <mxGeometry x="2640" y="1200" width="190" height="40" as="geometry" />
        </mxCell>
        <mxCell id="aPvHuGmZJIQzvLXJGcmd-93" value="handleError(root, throwValue)" style="rounded=0;html=1;align=left;" parent="1" vertex="1">
          <mxGeometry x="2640" y="1330" width="190" height="40" as="geometry" />
        </mxCell>
        <mxCell id="aPvHuGmZJIQzvLXJGcmd-99" value="" style="edgeStyle=orthogonalEdgeStyle;rounded=0;orthogonalLoop=1;jettySize=auto;html=1;" parent="1" source="aPvHuGmZJIQzvLXJGcmd-96" target="aPvHuGmZJIQzvLXJGcmd-98" edge="1">
          <mxGeometry relative="1" as="geometry" />
        </mxCell>
        <mxCell id="aPvHuGmZJIQzvLXJGcmd-96" value="performUnitOfWork(workInProgress)" style="rounded=0;html=1;align=left;" parent="1" vertex="1">
          <mxGeometry x="2870" y="1200" width="200" height="40" as="geometry" />
        </mxCell>
        <mxCell id="aPvHuGmZJIQzvLXJGcmd-101" style="edgeStyle=orthogonalEdgeStyle;rounded=0;orthogonalLoop=1;jettySize=auto;html=1;" parent="1" source="aPvHuGmZJIQzvLXJGcmd-98" target="aPvHuGmZJIQzvLXJGcmd-100" edge="1">
          <mxGeometry relative="1" as="geometry" />
        </mxCell>
        <mxCell id="aPvHuGmZJIQzvLXJGcmd-108" style="edgeStyle=orthogonalEdgeStyle;rounded=0;orthogonalLoop=1;jettySize=auto;html=1;entryX=0;entryY=0.5;entryDx=0;entryDy=0;" parent="1" source="aPvHuGmZJIQzvLXJGcmd-98" target="aPvHuGmZJIQzvLXJGcmd-107" edge="1">
          <mxGeometry relative="1" as="geometry" />
        </mxCell>
        <mxCell id="aPvHuGmZJIQzvLXJGcmd-98" value="next = beginWork(current, unitOfWork, subtreeRenderLanes)" style="rounded=0;html=1;align=left;" parent="1" vertex="1">
          <mxGeometry x="3130" y="1200" width="330" height="40" as="geometry" />
        </mxCell>
        <mxCell id="aPvHuGmZJIQzvLXJGcmd-103" value="true" style="edgeStyle=orthogonalEdgeStyle;rounded=0;orthogonalLoop=1;jettySize=auto;html=1;entryX=0;entryY=0.5;entryDx=0;entryDy=0;" parent="1" source="aPvHuGmZJIQzvLXJGcmd-100" target="aPvHuGmZJIQzvLXJGcmd-102" edge="1">
          <mxGeometry relative="1" as="geometry" />
        </mxCell>
        <mxCell id="aPvHuGmZJIQzvLXJGcmd-105" value="false" style="edgeStyle=orthogonalEdgeStyle;rounded=0;orthogonalLoop=1;jettySize=auto;html=1;entryX=0;entryY=0.5;entryDx=0;entryDy=0;" parent="1" source="aPvHuGmZJIQzvLXJGcmd-100" target="aPvHuGmZJIQzvLXJGcmd-104" edge="1">
          <mxGeometry relative="1" as="geometry" />
        </mxCell>
        <mxCell id="aPvHuGmZJIQzvLXJGcmd-100" value="next === null" style="rounded=0;html=1;align=left;" parent="1" vertex="1">
          <mxGeometry x="3250" y="1300" width="90" height="40" as="geometry" />
        </mxCell>
        <mxCell id="wl0tcXKJO6LF3421pvtA-2" value="" style="edgeStyle=orthogonalEdgeStyle;rounded=0;orthogonalLoop=1;jettySize=auto;html=1;" edge="1" parent="1" source="aPvHuGmZJIQzvLXJGcmd-102" target="wl0tcXKJO6LF3421pvtA-1">
          <mxGeometry relative="1" as="geometry" />
        </mxCell>
        <mxCell id="aPvHuGmZJIQzvLXJGcmd-102" value="completeUnitOfWork(unitOfWork)" style="rounded=0;html=1;align=left;" parent="1" vertex="1">
          <mxGeometry x="3430" y="1260" width="190" height="40" as="geometry" />
        </mxCell>
        <mxCell id="aPvHuGmZJIQzvLXJGcmd-106" style="edgeStyle=orthogonalEdgeStyle;rounded=0;orthogonalLoop=1;jettySize=auto;html=1;entryX=0.5;entryY=1;entryDx=0;entryDy=0;exitX=1;exitY=0.5;exitDx=0;exitDy=0;" parent="1" source="aPvHuGmZJIQzvLXJGcmd-104" target="aPvHuGmZJIQzvLXJGcmd-96" edge="1">
          <mxGeometry relative="1" as="geometry">
            <mxPoint x="3660" y="1430" as="sourcePoint" />
            <Array as="points">
              <mxPoint x="3660" y="1360" />
              <mxPoint x="3660" y="1420" />
              <mxPoint x="2970" y="1420" />
            </Array>
          </mxGeometry>
        </mxCell>
        <mxCell id="aPvHuGmZJIQzvLXJGcmd-104" value="workInProgress = next" style="rounded=0;html=1;align=left;" parent="1" vertex="1">
          <mxGeometry x="3430" y="1340" width="190" height="40" as="geometry" />
        </mxCell>
        <mxCell id="aPvHuGmZJIQzvLXJGcmd-110" style="edgeStyle=orthogonalEdgeStyle;rounded=0;orthogonalLoop=1;jettySize=auto;html=1;entryX=0;entryY=0.5;entryDx=0;entryDy=0;" parent="1" source="aPvHuGmZJIQzvLXJGcmd-107" target="aPvHuGmZJIQzvLXJGcmd-109" edge="1">
          <mxGeometry relative="1" as="geometry" />
        </mxCell>
        <mxCell id="aPvHuGmZJIQzvLXJGcmd-107" value="ReactFiberBeginWork.beginWork(current, unitOfWork, subtreeRenderLanes)" style="rounded=0;html=1;align=left;" parent="1" vertex="1">
          <mxGeometry x="3640" y="1200" width="410" height="40" as="geometry" />
        </mxCell>
        <mxCell id="aPvHuGmZJIQzvLXJGcmd-112" style="edgeStyle=orthogonalEdgeStyle;rounded=0;orthogonalLoop=1;jettySize=auto;html=1;entryX=0;entryY=0.5;entryDx=0;entryDy=0;" parent="1" source="aPvHuGmZJIQzvLXJGcmd-109" target="aPvHuGmZJIQzvLXJGcmd-111" edge="1">
          <mxGeometry relative="1" as="geometry" />
        </mxCell>
        <mxCell id="aPvHuGmZJIQzvLXJGcmd-114" style="edgeStyle=orthogonalEdgeStyle;rounded=0;orthogonalLoop=1;jettySize=auto;html=1;entryX=0;entryY=0.5;entryDx=0;entryDy=0;" parent="1" source="aPvHuGmZJIQzvLXJGcmd-109" target="aPvHuGmZJIQzvLXJGcmd-113" edge="1">
          <mxGeometry relative="1" as="geometry" />
        </mxCell>
        <mxCell id="aPvHuGmZJIQzvLXJGcmd-109" value="case HostRoot:&lt;br&gt;&amp;nbsp; return updateHostRoot(current, workInProgress, renderLanes);" style="rounded=0;html=1;align=left;" parent="1" vertex="1">
          <mxGeometry x="4100" y="1040" width="410" height="40" as="geometry" />
        </mxCell>
        <mxCell id="aPvHuGmZJIQzvLXJGcmd-111" value="cloneUpdateQueue(current, workInProgress)&lt;br&gt;processUpdateQueue(workInProgress, nextProps, null, renderLanes)" style="rounded=0;html=1;align=left;" parent="1" vertex="1">
          <mxGeometry x="4570" y="920" width="370" height="40" as="geometry" />
        </mxCell>
        <mxCell id="aPvHuGmZJIQzvLXJGcmd-113" value="reconcileChildren(current, workInProgress, nextChildren, renderLanes)" style="rounded=0;html=1;align=left;" parent="1" vertex="1">
          <mxGeometry x="4570" y="1010" width="380" height="40" as="geometry" />
        </mxCell>
        <mxCell id="wl0tcXKJO6LF3421pvtA-1" value="completeWork(current, completedWork, subtreeRenderLanes)" style="rounded=0;html=1;align=left;" vertex="1" parent="1">
          <mxGeometry x="3670" y="1260" width="340" height="40" as="geometry" />
        </mxCell>
        <mxCell id="wl0tcXKJO6LF3421pvtA-6" value="" style="edgeStyle=orthogonalEdgeStyle;rounded=0;orthogonalLoop=1;jettySize=auto;html=1;" edge="1" parent="1" source="wl0tcXKJO6LF3421pvtA-3" target="wl0tcXKJO6LF3421pvtA-5">
          <mxGeometry relative="1" as="geometry" />
        </mxCell>
        <mxCell id="wl0tcXKJO6LF3421pvtA-3" value="commitRoot(root,&amp;nbsp;workInProgressRootRecoverableErrors)" style="rounded=0;html=1;align=left;" vertex="1" parent="1">
          <mxGeometry x="1924" y="1500" width="316" height="40" as="geometry" />
        </mxCell>
        <mxCell id="wl0tcXKJO6LF3421pvtA-5" value="commitRootImpl(root, recoverableErrors, renderPriorityLevel)" style="rounded=0;html=1;align=left;" vertex="1" parent="1">
          <mxGeometry x="2290" y="1500" width="330" height="40" as="geometry" />
        </mxCell>
      </root>
    </mxGraphModel>
  </diagram>
</mxfile>
